<mxfile host="Electron" modified="2025-01-13T08:31:26.566Z" agent="Mozilla/5.0 (Windows NT 10.0; Win64; x64) AppleWebKit/537.36 (KHTML, like Gecko) draw.io/22.1.11 Chrome/114.0.5735.289 Electron/25.9.8 Safari/537.36" etag="XMSXIXrjVwKKgA8fFzf-" version="22.1.11" type="device">
  <diagram name="페이지-1" id="-VCRCgZCV_tBGSEdOtug">
    <mxGraphModel dx="1816" dy="577" grid="1" gridSize="10" guides="1" tooltips="1" connect="1" arrows="1" fold="1" page="1" pageScale="1" pageWidth="827" pageHeight="1169" math="0" shadow="0">
      <root>
        <mxCell id="0" />
        <mxCell id="1" parent="0" />
        <mxCell id="pNzOla6_ddMFijnGt9M_-12" value="단일 HTTP 요청에 대한 핸들러의 일반적인 계층화&lt;br style=&quot;font-size: 16px;&quot;&gt;(하나의 서블릿은 하나의 요청을 수행)" style="text;html=1;align=center;verticalAlign=middle;resizable=0;points=[];autosize=1;strokeColor=none;fillColor=none;fontSize=16;fontStyle=1" vertex="1" parent="1">
          <mxGeometry x="-40" y="50" width="380" height="50" as="geometry" />
        </mxCell>
        <mxCell id="pNzOla6_ddMFijnGt9M_-16" value="&lt;br&gt;* 두 개 이상의 필터를 사용하여 아래 기능 수행 가능&lt;br&gt;&lt;br&gt;&lt;span style=&quot;white-space: pre;&quot;&gt;&#x9;&lt;/span&gt;아래 방향 필터 또는 서블릿 호출 방지&lt;br&gt;&lt;span style=&quot;white-space: pre;&quot;&gt;&#x9;&lt;/span&gt;(이 경우 일반적으로 필터에서 HttpServletResponse 작성)&lt;br&gt;&lt;br&gt;&lt;span style=&quot;white-space: pre;&quot;&gt;&#x9;&lt;/span&gt;아래 방향 필터 또는 서블릿에서 사용하는&lt;br&gt;&lt;span style=&quot;white-space: pre;&quot;&gt;&#x9;&lt;/span&gt;HttpServletRequest / HttpServletResponse 수정" style="text;html=1;align=left;verticalAlign=middle;resizable=0;points=[];autosize=1;strokeColor=none;fillColor=none;" vertex="1" parent="1">
          <mxGeometry x="270" y="170" width="360" height="130" as="geometry" />
        </mxCell>
        <mxCell id="pNzOla6_ddMFijnGt9M_-17" value="필터 체인 사용 예시)&lt;br&gt;&lt;br&gt;public void doFilter(ServletReqeust req, ServletResponse resp, FilterChain chain) {&lt;br&gt;&lt;span style=&quot;white-space: pre;&quot;&gt;&#x9;&lt;/span&gt;// 필터 이전 수행&lt;br&gt;&lt;span style=&quot;white-space: pre;&quot;&gt;&#x9;&lt;/span&gt;chain.doFilter(req, resp); // 다음 필터 또는 서블릿 호출&lt;br&gt;&lt;span style=&quot;white-space: pre;&quot;&gt;&#x9;&lt;/span&gt;// 필터 이후 수행&lt;br&gt;}" style="text;html=1;align=left;verticalAlign=middle;resizable=0;points=[];autosize=1;strokeColor=none;fillColor=none;" vertex="1" parent="1">
          <mxGeometry x="95" y="538" width="460" height="110" as="geometry" />
        </mxCell>
        <mxCell id="pNzOla6_ddMFijnGt9M_-38" value="&lt;font style=&quot;font-size: 20px;&quot;&gt;DelegatingFilterProxy (위임 필터 프록시)&lt;/font&gt;" style="text;html=1;align=center;verticalAlign=middle;resizable=0;points=[];autosize=1;strokeColor=none;fillColor=none;" vertex="1" parent="1">
          <mxGeometry x="-40" y="1040" width="380" height="40" as="geometry" />
        </mxCell>
        <mxCell id="pNzOla6_ddMFijnGt9M_-66" value="- Servlet 컨테이너의 라이프사이클과 Spring 의 ApplicationContext 연결하는 Filter 구현체&lt;br&gt;&amp;nbsp; (서블릿 컨테이너는 자체 표준을 사용하여 Filter 인스턴스를 등록할 수 있지만&amp;nbsp;Spring 에서 정의한 Bean 은 인식하지 못하기 때문에 사용)" style="text;html=1;align=left;verticalAlign=middle;resizable=0;points=[];autosize=1;strokeColor=none;fillColor=none;" vertex="1" parent="1">
          <mxGeometry x="30" y="1093" width="750" height="40" as="geometry" />
        </mxCell>
        <mxCell id="pNzOla6_ddMFijnGt9M_-90" value="" style="group" vertex="1" connectable="0" parent="1">
          <mxGeometry x="20" y="120" width="240" height="370" as="geometry" />
        </mxCell>
        <mxCell id="pNzOla6_ddMFijnGt9M_-1" value="Clinet" style="whiteSpace=wrap;html=1;fillColor=#e1d5e7;strokeColor=#9673a6;" vertex="1" parent="pNzOla6_ddMFijnGt9M_-90">
          <mxGeometry x="60" width="120" height="30" as="geometry" />
        </mxCell>
        <mxCell id="pNzOla6_ddMFijnGt9M_-2" value="Filter0" style="whiteSpace=wrap;html=1;fillColor=#ffe6cc;strokeColor=#d79b00;" vertex="1" parent="pNzOla6_ddMFijnGt9M_-90">
          <mxGeometry x="60" y="70" width="120" height="30" as="geometry" />
        </mxCell>
        <mxCell id="pNzOla6_ddMFijnGt9M_-11" style="edgeStyle=orthogonalEdgeStyle;rounded=0;orthogonalLoop=1;jettySize=auto;html=1;entryX=0.5;entryY=0;entryDx=0;entryDy=0;startArrow=classic;startFill=1;" edge="1" parent="pNzOla6_ddMFijnGt9M_-90" source="pNzOla6_ddMFijnGt9M_-1" target="pNzOla6_ddMFijnGt9M_-2">
          <mxGeometry relative="1" as="geometry" />
        </mxCell>
        <mxCell id="pNzOla6_ddMFijnGt9M_-4" value="Filter1" style="whiteSpace=wrap;html=1;fillColor=#ffe6cc;strokeColor=#d79b00;" vertex="1" parent="pNzOla6_ddMFijnGt9M_-90">
          <mxGeometry x="60" y="140" width="120" height="30" as="geometry" />
        </mxCell>
        <mxCell id="pNzOla6_ddMFijnGt9M_-8" style="edgeStyle=orthogonalEdgeStyle;rounded=0;orthogonalLoop=1;jettySize=auto;html=1;entryX=0.5;entryY=0;entryDx=0;entryDy=0;startArrow=classic;startFill=1;" edge="1" parent="pNzOla6_ddMFijnGt9M_-90" source="pNzOla6_ddMFijnGt9M_-2" target="pNzOla6_ddMFijnGt9M_-4">
          <mxGeometry relative="1" as="geometry" />
        </mxCell>
        <mxCell id="pNzOla6_ddMFijnGt9M_-5" value="Filter2" style="whiteSpace=wrap;html=1;fillColor=#ffe6cc;strokeColor=#d79b00;" vertex="1" parent="pNzOla6_ddMFijnGt9M_-90">
          <mxGeometry x="60" y="210" width="120" height="30" as="geometry" />
        </mxCell>
        <mxCell id="pNzOla6_ddMFijnGt9M_-9" style="edgeStyle=orthogonalEdgeStyle;rounded=0;orthogonalLoop=1;jettySize=auto;html=1;entryX=0.5;entryY=0;entryDx=0;entryDy=0;startArrow=classic;startFill=1;" edge="1" parent="pNzOla6_ddMFijnGt9M_-90" source="pNzOla6_ddMFijnGt9M_-4" target="pNzOla6_ddMFijnGt9M_-5">
          <mxGeometry relative="1" as="geometry" />
        </mxCell>
        <mxCell id="pNzOla6_ddMFijnGt9M_-6" value="Servlet" style="whiteSpace=wrap;html=1;fillColor=#ffe6cc;strokeColor=#d79b00;" vertex="1" parent="pNzOla6_ddMFijnGt9M_-90">
          <mxGeometry x="60" y="280" width="120" height="30" as="geometry" />
        </mxCell>
        <mxCell id="pNzOla6_ddMFijnGt9M_-10" style="edgeStyle=orthogonalEdgeStyle;rounded=0;orthogonalLoop=1;jettySize=auto;html=1;entryX=0.5;entryY=0;entryDx=0;entryDy=0;startArrow=classic;startFill=1;" edge="1" parent="pNzOla6_ddMFijnGt9M_-90" source="pNzOla6_ddMFijnGt9M_-5" target="pNzOla6_ddMFijnGt9M_-6">
          <mxGeometry relative="1" as="geometry" />
        </mxCell>
        <mxCell id="pNzOla6_ddMFijnGt9M_-13" value="" style="whiteSpace=wrap;html=1;fillColor=none;dashed=1;" vertex="1" parent="pNzOla6_ddMFijnGt9M_-90">
          <mxGeometry x="40" y="50" width="160" height="275" as="geometry" />
        </mxCell>
        <mxCell id="pNzOla6_ddMFijnGt9M_-14" value="FilterChain&lt;br&gt;여러 필터와 서블릿으로 FilterChain 형성" style="text;html=1;align=center;verticalAlign=middle;resizable=0;points=[];autosize=1;strokeColor=none;fillColor=none;" vertex="1" parent="pNzOla6_ddMFijnGt9M_-90">
          <mxGeometry y="330" width="240" height="40" as="geometry" />
        </mxCell>
        <mxCell id="pNzOla6_ddMFijnGt9M_-91" value="" style="group" vertex="1" connectable="0" parent="1">
          <mxGeometry x="-40" y="680" width="600" height="270" as="geometry" />
        </mxCell>
        <mxCell id="pNzOla6_ddMFijnGt9M_-39" value="// 이전 코드 실행&lt;br&gt;filter.chain(req, resp)" style="whiteSpace=wrap;html=1;" vertex="1" parent="pNzOla6_ddMFijnGt9M_-91">
          <mxGeometry x="80" width="120" height="80" as="geometry" />
        </mxCell>
        <mxCell id="pNzOla6_ddMFijnGt9M_-40" value="// 이전 코드 실행&lt;br&gt;filter.chain(req, resp)" style="whiteSpace=wrap;html=1;" vertex="1" parent="pNzOla6_ddMFijnGt9M_-91">
          <mxGeometry x="240" width="120" height="80" as="geometry" />
        </mxCell>
        <mxCell id="pNzOla6_ddMFijnGt9M_-55" style="edgeStyle=orthogonalEdgeStyle;rounded=0;orthogonalLoop=1;jettySize=auto;html=1;entryX=0;entryY=0.5;entryDx=0;entryDy=0;" edge="1" parent="pNzOla6_ddMFijnGt9M_-91" source="pNzOla6_ddMFijnGt9M_-39" target="pNzOla6_ddMFijnGt9M_-40">
          <mxGeometry relative="1" as="geometry" />
        </mxCell>
        <mxCell id="pNzOla6_ddMFijnGt9M_-41" value="// 이전 코드 실행&lt;br&gt;filter.chain(req, resp)" style="whiteSpace=wrap;html=1;" vertex="1" parent="pNzOla6_ddMFijnGt9M_-91">
          <mxGeometry x="400" width="120" height="80" as="geometry" />
        </mxCell>
        <mxCell id="pNzOla6_ddMFijnGt9M_-56" style="edgeStyle=orthogonalEdgeStyle;rounded=0;orthogonalLoop=1;jettySize=auto;html=1;entryX=0;entryY=0.5;entryDx=0;entryDy=0;" edge="1" parent="pNzOla6_ddMFijnGt9M_-91" source="pNzOla6_ddMFijnGt9M_-40" target="pNzOla6_ddMFijnGt9M_-41">
          <mxGeometry relative="1" as="geometry" />
        </mxCell>
        <mxCell id="pNzOla6_ddMFijnGt9M_-42" value="servlet" style="rounded=0;whiteSpace=wrap;html=1;" vertex="1" parent="pNzOla6_ddMFijnGt9M_-91">
          <mxGeometry x="560" y="50" width="40" height="140" as="geometry" />
        </mxCell>
        <mxCell id="pNzOla6_ddMFijnGt9M_-57" style="edgeStyle=orthogonalEdgeStyle;rounded=0;orthogonalLoop=1;jettySize=auto;html=1;entryX=0;entryY=0.25;entryDx=0;entryDy=0;" edge="1" parent="pNzOla6_ddMFijnGt9M_-91" source="pNzOla6_ddMFijnGt9M_-41" target="pNzOla6_ddMFijnGt9M_-42">
          <mxGeometry relative="1" as="geometry" />
        </mxCell>
        <mxCell id="pNzOla6_ddMFijnGt9M_-43" value="filter.chain(req, resp)&lt;br&gt;// 이후 코드 실행" style="whiteSpace=wrap;html=1;" vertex="1" parent="pNzOla6_ddMFijnGt9M_-91">
          <mxGeometry x="80" y="160" width="120" height="80" as="geometry" />
        </mxCell>
        <mxCell id="pNzOla6_ddMFijnGt9M_-60" style="edgeStyle=orthogonalEdgeStyle;rounded=0;orthogonalLoop=1;jettySize=auto;html=1;entryX=1;entryY=0.5;entryDx=0;entryDy=0;" edge="1" parent="pNzOla6_ddMFijnGt9M_-91" source="pNzOla6_ddMFijnGt9M_-47" target="pNzOla6_ddMFijnGt9M_-43">
          <mxGeometry relative="1" as="geometry" />
        </mxCell>
        <mxCell id="pNzOla6_ddMFijnGt9M_-47" value="filter.chain(req, resp)&lt;br&gt;// 이후 코드 실행" style="whiteSpace=wrap;html=1;" vertex="1" parent="pNzOla6_ddMFijnGt9M_-91">
          <mxGeometry x="240" y="160" width="120" height="80" as="geometry" />
        </mxCell>
        <mxCell id="pNzOla6_ddMFijnGt9M_-59" style="edgeStyle=orthogonalEdgeStyle;rounded=0;orthogonalLoop=1;jettySize=auto;html=1;entryX=1;entryY=0.5;entryDx=0;entryDy=0;" edge="1" parent="pNzOla6_ddMFijnGt9M_-91" source="pNzOla6_ddMFijnGt9M_-48" target="pNzOla6_ddMFijnGt9M_-47">
          <mxGeometry relative="1" as="geometry" />
        </mxCell>
        <mxCell id="pNzOla6_ddMFijnGt9M_-48" value="filter.chain(req, resp)&lt;br&gt;// 이후 코드 실행" style="whiteSpace=wrap;html=1;" vertex="1" parent="pNzOla6_ddMFijnGt9M_-91">
          <mxGeometry x="400" y="160" width="120" height="80" as="geometry" />
        </mxCell>
        <mxCell id="pNzOla6_ddMFijnGt9M_-58" style="edgeStyle=orthogonalEdgeStyle;rounded=0;orthogonalLoop=1;jettySize=auto;html=1;entryX=1;entryY=0.5;entryDx=0;entryDy=0;exitX=0;exitY=0.75;exitDx=0;exitDy=0;" edge="1" parent="pNzOla6_ddMFijnGt9M_-91" source="pNzOla6_ddMFijnGt9M_-42" target="pNzOla6_ddMFijnGt9M_-48">
          <mxGeometry relative="1" as="geometry" />
        </mxCell>
        <mxCell id="pNzOla6_ddMFijnGt9M_-49" value="filter0" style="text;html=1;align=center;verticalAlign=middle;resizable=0;points=[];autosize=1;strokeColor=none;fillColor=none;" vertex="1" parent="pNzOla6_ddMFijnGt9M_-91">
          <mxGeometry x="115" y="80" width="50" height="30" as="geometry" />
        </mxCell>
        <mxCell id="pNzOla6_ddMFijnGt9M_-50" value="filter0" style="text;html=1;align=center;verticalAlign=middle;resizable=0;points=[];autosize=1;strokeColor=none;fillColor=none;" vertex="1" parent="pNzOla6_ddMFijnGt9M_-91">
          <mxGeometry x="115" y="240" width="50" height="30" as="geometry" />
        </mxCell>
        <mxCell id="pNzOla6_ddMFijnGt9M_-51" value="filter1" style="text;html=1;align=center;verticalAlign=middle;resizable=0;points=[];autosize=1;strokeColor=none;fillColor=none;" vertex="1" parent="pNzOla6_ddMFijnGt9M_-91">
          <mxGeometry x="275" y="80" width="50" height="30" as="geometry" />
        </mxCell>
        <mxCell id="pNzOla6_ddMFijnGt9M_-52" value="filter2" style="text;html=1;align=center;verticalAlign=middle;resizable=0;points=[];autosize=1;strokeColor=none;fillColor=none;" vertex="1" parent="pNzOla6_ddMFijnGt9M_-91">
          <mxGeometry x="435" y="80" width="50" height="30" as="geometry" />
        </mxCell>
        <mxCell id="pNzOla6_ddMFijnGt9M_-53" value="filter1" style="text;html=1;align=center;verticalAlign=middle;resizable=0;points=[];autosize=1;strokeColor=none;fillColor=none;" vertex="1" parent="pNzOla6_ddMFijnGt9M_-91">
          <mxGeometry x="275" y="240" width="50" height="30" as="geometry" />
        </mxCell>
        <mxCell id="pNzOla6_ddMFijnGt9M_-54" value="filter2" style="text;html=1;align=center;verticalAlign=middle;resizable=0;points=[];autosize=1;strokeColor=none;fillColor=none;" vertex="1" parent="pNzOla6_ddMFijnGt9M_-91">
          <mxGeometry x="435" y="240" width="50" height="30" as="geometry" />
        </mxCell>
        <mxCell id="pNzOla6_ddMFijnGt9M_-65" style="edgeStyle=orthogonalEdgeStyle;rounded=0;orthogonalLoop=1;jettySize=auto;html=1;entryX=0;entryY=0.5;entryDx=0;entryDy=0;" edge="1" parent="pNzOla6_ddMFijnGt9M_-91" source="pNzOla6_ddMFijnGt9M_-61" target="pNzOla6_ddMFijnGt9M_-39">
          <mxGeometry relative="1" as="geometry" />
        </mxCell>
        <mxCell id="pNzOla6_ddMFijnGt9M_-61" value="요청" style="ellipse;whiteSpace=wrap;html=1;aspect=fixed;" vertex="1" parent="pNzOla6_ddMFijnGt9M_-91">
          <mxGeometry y="20" width="40" height="40" as="geometry" />
        </mxCell>
        <mxCell id="pNzOla6_ddMFijnGt9M_-63" value="응답" style="ellipse;whiteSpace=wrap;html=1;aspect=fixed;" vertex="1" parent="pNzOla6_ddMFijnGt9M_-91">
          <mxGeometry y="180" width="40" height="40" as="geometry" />
        </mxCell>
        <mxCell id="pNzOla6_ddMFijnGt9M_-64" style="edgeStyle=orthogonalEdgeStyle;rounded=0;orthogonalLoop=1;jettySize=auto;html=1;" edge="1" parent="pNzOla6_ddMFijnGt9M_-91" source="pNzOla6_ddMFijnGt9M_-43" target="pNzOla6_ddMFijnGt9M_-63">
          <mxGeometry relative="1" as="geometry" />
        </mxCell>
        <mxCell id="pNzOla6_ddMFijnGt9M_-92" value="" style="group" vertex="1" connectable="0" parent="1">
          <mxGeometry x="-50" y="1180" width="240" height="360" as="geometry" />
        </mxCell>
        <mxCell id="pNzOla6_ddMFijnGt9M_-86" value="" style="whiteSpace=wrap;html=1;fillColor=none;dashed=1;" vertex="1" parent="pNzOla6_ddMFijnGt9M_-92">
          <mxGeometry x="80" y="50" width="160" height="310" as="geometry" />
        </mxCell>
        <mxCell id="pNzOla6_ddMFijnGt9M_-78" value="Clinet" style="whiteSpace=wrap;html=1;fillColor=#e1d5e7;strokeColor=#9673a6;" vertex="1" parent="pNzOla6_ddMFijnGt9M_-92">
          <mxGeometry x="100" width="120" height="30" as="geometry" />
        </mxCell>
        <mxCell id="pNzOla6_ddMFijnGt9M_-80" value="Filter0" style="whiteSpace=wrap;html=1;fillColor=#ffe6cc;strokeColor=#d79b00;" vertex="1" parent="pNzOla6_ddMFijnGt9M_-92">
          <mxGeometry x="100" y="70" width="120" height="30" as="geometry" />
        </mxCell>
        <mxCell id="pNzOla6_ddMFijnGt9M_-77" style="edgeStyle=orthogonalEdgeStyle;rounded=0;orthogonalLoop=1;jettySize=auto;html=1;entryX=0.5;entryY=0;entryDx=0;entryDy=0;startArrow=classic;startFill=1;" edge="1" parent="pNzOla6_ddMFijnGt9M_-92" source="pNzOla6_ddMFijnGt9M_-78" target="pNzOla6_ddMFijnGt9M_-80">
          <mxGeometry relative="1" as="geometry" />
        </mxCell>
        <mxCell id="pNzOla6_ddMFijnGt9M_-82" value="" style="whiteSpace=wrap;html=1;fillColor=#ffe6cc;strokeColor=#d79b00;" vertex="1" parent="pNzOla6_ddMFijnGt9M_-92">
          <mxGeometry x="100" y="140" width="120" height="60" as="geometry" />
        </mxCell>
        <mxCell id="pNzOla6_ddMFijnGt9M_-79" style="edgeStyle=orthogonalEdgeStyle;rounded=0;orthogonalLoop=1;jettySize=auto;html=1;entryX=0.5;entryY=0;entryDx=0;entryDy=0;startArrow=classic;startFill=1;" edge="1" parent="pNzOla6_ddMFijnGt9M_-92" source="pNzOla6_ddMFijnGt9M_-80" target="pNzOla6_ddMFijnGt9M_-82">
          <mxGeometry relative="1" as="geometry" />
        </mxCell>
        <mxCell id="pNzOla6_ddMFijnGt9M_-84" value="Filter2" style="whiteSpace=wrap;html=1;fillColor=#ffe6cc;strokeColor=#d79b00;" vertex="1" parent="pNzOla6_ddMFijnGt9M_-92">
          <mxGeometry x="100" y="240" width="120" height="30" as="geometry" />
        </mxCell>
        <mxCell id="pNzOla6_ddMFijnGt9M_-81" style="edgeStyle=orthogonalEdgeStyle;rounded=0;orthogonalLoop=1;jettySize=auto;html=1;entryX=0.5;entryY=0;entryDx=0;entryDy=0;startArrow=classic;startFill=1;" edge="1" parent="pNzOla6_ddMFijnGt9M_-92" source="pNzOla6_ddMFijnGt9M_-82" target="pNzOla6_ddMFijnGt9M_-84">
          <mxGeometry relative="1" as="geometry" />
        </mxCell>
        <mxCell id="pNzOla6_ddMFijnGt9M_-85" value="Servlet" style="whiteSpace=wrap;html=1;fillColor=#ffe6cc;strokeColor=#d79b00;" vertex="1" parent="pNzOla6_ddMFijnGt9M_-92">
          <mxGeometry x="100" y="310" width="120" height="30" as="geometry" />
        </mxCell>
        <mxCell id="pNzOla6_ddMFijnGt9M_-83" style="edgeStyle=orthogonalEdgeStyle;rounded=0;orthogonalLoop=1;jettySize=auto;html=1;entryX=0.5;entryY=0;entryDx=0;entryDy=0;startArrow=classic;startFill=1;" edge="1" parent="pNzOla6_ddMFijnGt9M_-92" source="pNzOla6_ddMFijnGt9M_-84" target="pNzOla6_ddMFijnGt9M_-85">
          <mxGeometry relative="1" as="geometry" />
        </mxCell>
        <mxCell id="pNzOla6_ddMFijnGt9M_-87" value="FilterChain" style="text;html=1;align=center;verticalAlign=middle;resizable=0;points=[];autosize=1;strokeColor=none;fillColor=none;" vertex="1" parent="pNzOla6_ddMFijnGt9M_-92">
          <mxGeometry y="50" width="80" height="30" as="geometry" />
        </mxCell>
        <mxCell id="pNzOla6_ddMFijnGt9M_-88" value="Bean Filter0" style="whiteSpace=wrap;html=1;" vertex="1" parent="pNzOla6_ddMFijnGt9M_-92">
          <mxGeometry x="107" y="160" width="106" height="30" as="geometry" />
        </mxCell>
        <mxCell id="pNzOla6_ddMFijnGt9M_-89" value="DelegatingFilterProxy" style="text;html=1;align=center;verticalAlign=middle;resizable=0;points=[];autosize=1;strokeColor=none;fillColor=none;" vertex="1" parent="pNzOla6_ddMFijnGt9M_-92">
          <mxGeometry x="90" y="135" width="140" height="30" as="geometry" />
        </mxCell>
        <mxCell id="pNzOla6_ddMFijnGt9M_-93" value="DelegatingFilterProxy 는 ApplicationContext 에서 &lt;br&gt;Bean Filter0 을 조회한 다음 Bean Filter0 을 호출" style="text;html=1;align=left;verticalAlign=middle;resizable=0;points=[];autosize=1;strokeColor=none;fillColor=none;" vertex="1" parent="1">
          <mxGeometry x="210" y="1330" width="280" height="40" as="geometry" />
        </mxCell>
        <mxCell id="pNzOla6_ddMFijnGt9M_-94" value="서블릿 컨테이너가 시작될 때 필터를 초기화 해야하는데, 스프링 빈은 이 때 등록되지 않은 상태이다.&lt;br&gt;&lt;br&gt;DelegatingFilterProxy 는 이를 해결하기 위해 필터 빈 조회를 지연시켜 문제 없이 초기화할 수 있도록 해준다." style="text;html=1;align=left;verticalAlign=middle;resizable=0;points=[];autosize=1;strokeColor=none;fillColor=none;" vertex="1" parent="1">
          <mxGeometry x="220" y="1405" width="600" height="60" as="geometry" />
        </mxCell>
        <mxCell id="pNzOla6_ddMFijnGt9M_-95" value="&lt;font style=&quot;font-size: 20px;&quot;&gt;FilterChainProxy&lt;/font&gt;" style="text;html=1;align=center;verticalAlign=middle;resizable=0;points=[];autosize=1;strokeColor=none;fillColor=none;" vertex="1" parent="1">
          <mxGeometry x="20" y="1620" width="170" height="40" as="geometry" />
        </mxCell>
        <mxCell id="pNzOla6_ddMFijnGt9M_-96" value="- 스프링 시큐리티에서 제공하는 특수 Filter&amp;nbsp;&lt;br&gt;- SecurityFilterChain 을 통해 여러 Filter 인스턴스에 위임&lt;br&gt;- FilterChainProxy는 Bean 이므로 일반적으로 DelegatingFilterProxy 에 래핑 됨&lt;br&gt;&amp;nbsp; (서블릿 컨테이너에 등록되기 위해서 DelegatingFilterProxy 의 도움을 받아야함)" style="text;html=1;align=left;verticalAlign=middle;resizable=0;points=[];autosize=1;strokeColor=none;fillColor=none;" vertex="1" parent="1">
          <mxGeometry x="40" y="1658" width="450" height="70" as="geometry" />
        </mxCell>
        <mxCell id="pNzOla6_ddMFijnGt9M_-113" value="&lt;span style=&quot;font-size: 20px;&quot;&gt;SecurityFilterChain&lt;/span&gt;" style="text;html=1;align=center;verticalAlign=middle;resizable=0;points=[];autosize=1;strokeColor=none;fillColor=none;" vertex="1" parent="1">
          <mxGeometry x="20" y="2190" width="190" height="40" as="geometry" />
        </mxCell>
        <mxCell id="pNzOla6_ddMFijnGt9M_-114" value="" style="group" vertex="1" connectable="0" parent="1">
          <mxGeometry x="30" y="1740" width="420" height="360" as="geometry" />
        </mxCell>
        <mxCell id="pNzOla6_ddMFijnGt9M_-111" value="SecurityFilterChain" style="whiteSpace=wrap;html=1;fillColor=#f5f5f5;strokeColor=#666666;fontColor=#333333;" vertex="1" parent="pNzOla6_ddMFijnGt9M_-114">
          <mxGeometry x="300" y="160" width="120" height="30" as="geometry" />
        </mxCell>
        <mxCell id="pNzOla6_ddMFijnGt9M_-112" style="edgeStyle=orthogonalEdgeStyle;rounded=0;orthogonalLoop=1;jettySize=auto;html=1;exitX=1;exitY=0.5;exitDx=0;exitDy=0;entryX=0;entryY=0.5;entryDx=0;entryDy=0;" edge="1" parent="pNzOla6_ddMFijnGt9M_-114" source="pNzOla6_ddMFijnGt9M_-109" target="pNzOla6_ddMFijnGt9M_-111">
          <mxGeometry relative="1" as="geometry" />
        </mxCell>
        <mxCell id="pNzOla6_ddMFijnGt9M_-98" value="" style="whiteSpace=wrap;html=1;fillColor=none;dashed=1;" vertex="1" parent="pNzOla6_ddMFijnGt9M_-114">
          <mxGeometry x="80" y="50" width="160" height="310" as="geometry" />
        </mxCell>
        <mxCell id="pNzOla6_ddMFijnGt9M_-99" value="Clinet" style="whiteSpace=wrap;html=1;fillColor=#e1d5e7;strokeColor=#9673a6;" vertex="1" parent="pNzOla6_ddMFijnGt9M_-114">
          <mxGeometry x="100" width="120" height="30" as="geometry" />
        </mxCell>
        <mxCell id="pNzOla6_ddMFijnGt9M_-100" value="Filter0" style="whiteSpace=wrap;html=1;fillColor=#ffe6cc;strokeColor=#d79b00;" vertex="1" parent="pNzOla6_ddMFijnGt9M_-114">
          <mxGeometry x="100" y="70" width="120" height="30" as="geometry" />
        </mxCell>
        <mxCell id="pNzOla6_ddMFijnGt9M_-101" style="edgeStyle=orthogonalEdgeStyle;rounded=0;orthogonalLoop=1;jettySize=auto;html=1;entryX=0.5;entryY=0;entryDx=0;entryDy=0;startArrow=classic;startFill=1;" edge="1" parent="pNzOla6_ddMFijnGt9M_-114" source="pNzOla6_ddMFijnGt9M_-99" target="pNzOla6_ddMFijnGt9M_-100">
          <mxGeometry relative="1" as="geometry" />
        </mxCell>
        <mxCell id="pNzOla6_ddMFijnGt9M_-102" value="" style="whiteSpace=wrap;html=1;fillColor=#ffe6cc;strokeColor=#d79b00;" vertex="1" parent="pNzOla6_ddMFijnGt9M_-114">
          <mxGeometry x="100" y="140" width="120" height="60" as="geometry" />
        </mxCell>
        <mxCell id="pNzOla6_ddMFijnGt9M_-103" style="edgeStyle=orthogonalEdgeStyle;rounded=0;orthogonalLoop=1;jettySize=auto;html=1;entryX=0.5;entryY=0;entryDx=0;entryDy=0;startArrow=classic;startFill=1;" edge="1" parent="pNzOla6_ddMFijnGt9M_-114" source="pNzOla6_ddMFijnGt9M_-100" target="pNzOla6_ddMFijnGt9M_-102">
          <mxGeometry relative="1" as="geometry" />
        </mxCell>
        <mxCell id="pNzOla6_ddMFijnGt9M_-104" value="Filter2" style="whiteSpace=wrap;html=1;fillColor=#ffe6cc;strokeColor=#d79b00;" vertex="1" parent="pNzOla6_ddMFijnGt9M_-114">
          <mxGeometry x="100" y="240" width="120" height="30" as="geometry" />
        </mxCell>
        <mxCell id="pNzOla6_ddMFijnGt9M_-105" style="edgeStyle=orthogonalEdgeStyle;rounded=0;orthogonalLoop=1;jettySize=auto;html=1;entryX=0.5;entryY=0;entryDx=0;entryDy=0;startArrow=classic;startFill=1;" edge="1" parent="pNzOla6_ddMFijnGt9M_-114" source="pNzOla6_ddMFijnGt9M_-102" target="pNzOla6_ddMFijnGt9M_-104">
          <mxGeometry relative="1" as="geometry" />
        </mxCell>
        <mxCell id="pNzOla6_ddMFijnGt9M_-106" value="Servlet" style="whiteSpace=wrap;html=1;fillColor=#ffe6cc;strokeColor=#d79b00;" vertex="1" parent="pNzOla6_ddMFijnGt9M_-114">
          <mxGeometry x="100" y="310" width="120" height="30" as="geometry" />
        </mxCell>
        <mxCell id="pNzOla6_ddMFijnGt9M_-107" style="edgeStyle=orthogonalEdgeStyle;rounded=0;orthogonalLoop=1;jettySize=auto;html=1;entryX=0.5;entryY=0;entryDx=0;entryDy=0;startArrow=classic;startFill=1;" edge="1" parent="pNzOla6_ddMFijnGt9M_-114" source="pNzOla6_ddMFijnGt9M_-104" target="pNzOla6_ddMFijnGt9M_-106">
          <mxGeometry relative="1" as="geometry" />
        </mxCell>
        <mxCell id="pNzOla6_ddMFijnGt9M_-108" value="FilterChain" style="text;html=1;align=center;verticalAlign=middle;resizable=0;points=[];autosize=1;strokeColor=none;fillColor=none;" vertex="1" parent="pNzOla6_ddMFijnGt9M_-114">
          <mxGeometry y="50" width="80" height="30" as="geometry" />
        </mxCell>
        <mxCell id="pNzOla6_ddMFijnGt9M_-109" value="FilterChainProxy" style="whiteSpace=wrap;html=1;" vertex="1" parent="pNzOla6_ddMFijnGt9M_-114">
          <mxGeometry x="107" y="160" width="106" height="30" as="geometry" />
        </mxCell>
        <mxCell id="pNzOla6_ddMFijnGt9M_-110" value="DelegatingFilterProxy" style="text;html=1;align=center;verticalAlign=middle;resizable=0;points=[];autosize=1;strokeColor=none;fillColor=none;" vertex="1" parent="pNzOla6_ddMFijnGt9M_-114">
          <mxGeometry x="90" y="135" width="140" height="30" as="geometry" />
        </mxCell>
        <mxCell id="pNzOla6_ddMFijnGt9M_-117" value="- FilterChainProxy가 현재 요청에 대해 어떤 Spring Security Filter 인스턴스를 호출해야 하는지 결정하는데 사용" style="text;html=1;align=left;verticalAlign=middle;resizable=0;points=[];autosize=1;strokeColor=none;fillColor=none;" vertex="1" parent="1">
          <mxGeometry x="20" y="2238" width="610" height="30" as="geometry" />
        </mxCell>
        <mxCell id="pNzOla6_ddMFijnGt9M_-146" value="- SecurityFilterChain 의 보안 필터는 일반적으로 Bean 이지만 DelegatingFilterProxy 대신 FilterChainProxy 에 등록된다" style="text;html=1;align=left;verticalAlign=middle;resizable=0;points=[];autosize=1;strokeColor=none;fillColor=none;" vertex="1" parent="1">
          <mxGeometry x="80" y="2705" width="650" height="30" as="geometry" />
        </mxCell>
        <mxCell id="pNzOla6_ddMFijnGt9M_-147" value="* DelegatingFilterProxy 에 직접등록하지 않고 FilterChainProxy 에 등록 이점&lt;br&gt;&lt;br&gt;- 1. 스프링 시큐리티의 모든 서블릿 지원에 대한 시작점을 제공&lt;br&gt;&lt;span style=&quot;white-space: pre;&quot;&gt;&#x9;&lt;/span&gt;이를 통해 디버깅 시 FilterChainProxy 에 디버그 포인트를 추가하는 것이 유용&lt;br&gt;&lt;br&gt;- 2. 스프링 시큐리티 사용 시 필수 작업 수행&lt;br&gt;&amp;nbsp; &amp;nbsp;&lt;span style=&quot;white-space: pre;&quot;&gt;&#x9;&lt;/span&gt;- SecurityContext 를 정리하여 메모리 누수 방지&amp;nbsp;&lt;br&gt;&lt;span style=&quot;white-space: pre;&quot;&gt;&#x9;&lt;/span&gt;- HttpFirewall 정용하여 보안 공격으로 부터 애플리케이션 보호&amp;nbsp;&lt;br&gt;&lt;br&gt;- 3. SecurityFilterChain 을 호출하는 시점을 결정하는데 더 큰 유연성 제공&lt;br&gt;&lt;span style=&quot;white-space: pre;&quot;&gt;&#x9;&lt;/span&gt;FilterChainProxy 는 ReqeustMatcher 인터페이스를 사용하여 HttpServletRequest 의 모든 것에 따라 호출을 결정할 수 있음&amp;nbsp;" style="text;html=1;align=left;verticalAlign=middle;resizable=0;points=[];autosize=1;strokeColor=none;fillColor=none;" vertex="1" parent="1">
          <mxGeometry x="80" y="2753" width="700" height="170" as="geometry" />
        </mxCell>
        <mxCell id="pNzOla6_ddMFijnGt9M_-148" value="서블릿은 특정 경로에 대해서만 호출할 수 있다.&lt;br&gt;&lt;br&gt;@WebFilter(&quot;/admin/*&quot;)&lt;br&gt;public class AdminFilter implements Filter {&lt;br&gt;&lt;span style=&quot;&quot;&gt;&lt;span style=&quot;white-space: pre;&quot;&gt;&amp;nbsp;&amp;nbsp;&amp;nbsp;&amp;nbsp;&lt;/span&gt;&lt;/span&gt;...&amp;nbsp;&lt;br&gt;}" style="text;html=1;align=left;verticalAlign=middle;resizable=0;points=[];autosize=1;strokeColor=none;fillColor=none;" vertex="1" parent="1">
          <mxGeometry x="90" y="2940" width="270" height="100" as="geometry" />
        </mxCell>
        <mxCell id="pNzOla6_ddMFijnGt9M_-149" value="" style="group" vertex="1" connectable="0" parent="1">
          <mxGeometry x="30" y="2300" width="460" height="360" as="geometry" />
        </mxCell>
        <mxCell id="pNzOla6_ddMFijnGt9M_-134" value="" style="whiteSpace=wrap;html=1;fillColor=none;dashed=1;" vertex="1" parent="pNzOla6_ddMFijnGt9M_-149">
          <mxGeometry x="300" y="98" width="160" height="232" as="geometry" />
        </mxCell>
        <mxCell id="pNzOla6_ddMFijnGt9M_-119" value="Security Filter 0" style="whiteSpace=wrap;html=1;fillColor=#f5f5f5;strokeColor=#666666;fontColor=#333333;" vertex="1" parent="pNzOla6_ddMFijnGt9M_-149">
          <mxGeometry x="320" y="110" width="120" height="30" as="geometry" />
        </mxCell>
        <mxCell id="pNzOla6_ddMFijnGt9M_-120" style="edgeStyle=orthogonalEdgeStyle;rounded=0;orthogonalLoop=1;jettySize=auto;html=1;exitX=1;exitY=0.5;exitDx=0;exitDy=0;entryX=0.001;entryY=0.331;entryDx=0;entryDy=0;entryPerimeter=0;" edge="1" parent="pNzOla6_ddMFijnGt9M_-149" source="pNzOla6_ddMFijnGt9M_-132" target="pNzOla6_ddMFijnGt9M_-134">
          <mxGeometry relative="1" as="geometry">
            <mxPoint x="270" y="200" as="targetPoint" />
          </mxGeometry>
        </mxCell>
        <mxCell id="pNzOla6_ddMFijnGt9M_-121" value="" style="whiteSpace=wrap;html=1;fillColor=none;dashed=1;" vertex="1" parent="pNzOla6_ddMFijnGt9M_-149">
          <mxGeometry x="80" y="50" width="160" height="310" as="geometry" />
        </mxCell>
        <mxCell id="pNzOla6_ddMFijnGt9M_-122" value="Clinet" style="whiteSpace=wrap;html=1;fillColor=#e1d5e7;strokeColor=#9673a6;" vertex="1" parent="pNzOla6_ddMFijnGt9M_-149">
          <mxGeometry x="100" width="120" height="30" as="geometry" />
        </mxCell>
        <mxCell id="pNzOla6_ddMFijnGt9M_-123" value="Filter0" style="whiteSpace=wrap;html=1;fillColor=#ffe6cc;strokeColor=#d79b00;" vertex="1" parent="pNzOla6_ddMFijnGt9M_-149">
          <mxGeometry x="100" y="70" width="120" height="30" as="geometry" />
        </mxCell>
        <mxCell id="pNzOla6_ddMFijnGt9M_-124" style="edgeStyle=orthogonalEdgeStyle;rounded=0;orthogonalLoop=1;jettySize=auto;html=1;entryX=0.5;entryY=0;entryDx=0;entryDy=0;startArrow=classic;startFill=1;" edge="1" parent="pNzOla6_ddMFijnGt9M_-149" source="pNzOla6_ddMFijnGt9M_-122" target="pNzOla6_ddMFijnGt9M_-123">
          <mxGeometry relative="1" as="geometry" />
        </mxCell>
        <mxCell id="pNzOla6_ddMFijnGt9M_-125" value="" style="whiteSpace=wrap;html=1;fillColor=#ffe6cc;strokeColor=#d79b00;" vertex="1" parent="pNzOla6_ddMFijnGt9M_-149">
          <mxGeometry x="100" y="140" width="120" height="60" as="geometry" />
        </mxCell>
        <mxCell id="pNzOla6_ddMFijnGt9M_-126" style="edgeStyle=orthogonalEdgeStyle;rounded=0;orthogonalLoop=1;jettySize=auto;html=1;entryX=0.5;entryY=0;entryDx=0;entryDy=0;startArrow=classic;startFill=1;" edge="1" parent="pNzOla6_ddMFijnGt9M_-149" source="pNzOla6_ddMFijnGt9M_-123" target="pNzOla6_ddMFijnGt9M_-125">
          <mxGeometry relative="1" as="geometry" />
        </mxCell>
        <mxCell id="pNzOla6_ddMFijnGt9M_-127" value="Filter2" style="whiteSpace=wrap;html=1;fillColor=#ffe6cc;strokeColor=#d79b00;" vertex="1" parent="pNzOla6_ddMFijnGt9M_-149">
          <mxGeometry x="100" y="240" width="120" height="30" as="geometry" />
        </mxCell>
        <mxCell id="pNzOla6_ddMFijnGt9M_-128" style="edgeStyle=orthogonalEdgeStyle;rounded=0;orthogonalLoop=1;jettySize=auto;html=1;entryX=0.5;entryY=0;entryDx=0;entryDy=0;startArrow=classic;startFill=1;" edge="1" parent="pNzOla6_ddMFijnGt9M_-149" source="pNzOla6_ddMFijnGt9M_-125" target="pNzOla6_ddMFijnGt9M_-127">
          <mxGeometry relative="1" as="geometry" />
        </mxCell>
        <mxCell id="pNzOla6_ddMFijnGt9M_-129" value="Servlet" style="whiteSpace=wrap;html=1;fillColor=#ffe6cc;strokeColor=#d79b00;" vertex="1" parent="pNzOla6_ddMFijnGt9M_-149">
          <mxGeometry x="100" y="310" width="120" height="30" as="geometry" />
        </mxCell>
        <mxCell id="pNzOla6_ddMFijnGt9M_-130" style="edgeStyle=orthogonalEdgeStyle;rounded=0;orthogonalLoop=1;jettySize=auto;html=1;entryX=0.5;entryY=0;entryDx=0;entryDy=0;startArrow=classic;startFill=1;" edge="1" parent="pNzOla6_ddMFijnGt9M_-149" source="pNzOla6_ddMFijnGt9M_-127" target="pNzOla6_ddMFijnGt9M_-129">
          <mxGeometry relative="1" as="geometry" />
        </mxCell>
        <mxCell id="pNzOla6_ddMFijnGt9M_-131" value="FilterChain" style="text;html=1;align=center;verticalAlign=middle;resizable=0;points=[];autosize=1;strokeColor=none;fillColor=none;" vertex="1" parent="pNzOla6_ddMFijnGt9M_-149">
          <mxGeometry y="50" width="80" height="30" as="geometry" />
        </mxCell>
        <mxCell id="pNzOla6_ddMFijnGt9M_-132" value="FilterChainProxy" style="whiteSpace=wrap;html=1;" vertex="1" parent="pNzOla6_ddMFijnGt9M_-149">
          <mxGeometry x="107" y="160" width="106" height="30" as="geometry" />
        </mxCell>
        <mxCell id="pNzOla6_ddMFijnGt9M_-133" value="DelegatingFilterProxy" style="text;html=1;align=center;verticalAlign=middle;resizable=0;points=[];autosize=1;strokeColor=none;fillColor=none;" vertex="1" parent="pNzOla6_ddMFijnGt9M_-149">
          <mxGeometry x="90" y="135" width="140" height="30" as="geometry" />
        </mxCell>
        <mxCell id="pNzOla6_ddMFijnGt9M_-135" value="SecurityFilterChain" style="text;html=1;align=center;verticalAlign=middle;resizable=0;points=[];autosize=1;strokeColor=none;fillColor=none;" vertex="1" parent="pNzOla6_ddMFijnGt9M_-149">
          <mxGeometry x="300" y="68" width="120" height="30" as="geometry" />
        </mxCell>
        <mxCell id="pNzOla6_ddMFijnGt9M_-136" value="Security Filter n" style="whiteSpace=wrap;html=1;fillColor=#f5f5f5;strokeColor=#666666;fontColor=#333333;" vertex="1" parent="pNzOla6_ddMFijnGt9M_-149">
          <mxGeometry x="320" y="290" width="120" height="30" as="geometry" />
        </mxCell>
        <mxCell id="pNzOla6_ddMFijnGt9M_-137" value="Security Filter 1" style="whiteSpace=wrap;html=1;fillColor=#f5f5f5;strokeColor=#666666;fontColor=#333333;" vertex="1" parent="pNzOla6_ddMFijnGt9M_-149">
          <mxGeometry x="320" y="170" width="120" height="30" as="geometry" />
        </mxCell>
        <mxCell id="pNzOla6_ddMFijnGt9M_-139" style="edgeStyle=orthogonalEdgeStyle;rounded=0;orthogonalLoop=1;jettySize=auto;html=1;entryX=0.5;entryY=0;entryDx=0;entryDy=0;startArrow=classic;startFill=1;" edge="1" parent="pNzOla6_ddMFijnGt9M_-149" source="pNzOla6_ddMFijnGt9M_-119" target="pNzOla6_ddMFijnGt9M_-137">
          <mxGeometry relative="1" as="geometry" />
        </mxCell>
        <mxCell id="pNzOla6_ddMFijnGt9M_-145" style="edgeStyle=orthogonalEdgeStyle;rounded=0;orthogonalLoop=1;jettySize=auto;html=1;startArrow=classic;startFill=1;" edge="1" parent="pNzOla6_ddMFijnGt9M_-149" source="pNzOla6_ddMFijnGt9M_-143" target="pNzOla6_ddMFijnGt9M_-136">
          <mxGeometry relative="1" as="geometry" />
        </mxCell>
        <mxCell id="pNzOla6_ddMFijnGt9M_-143" value="..." style="whiteSpace=wrap;html=1;fillColor=#f5f5f5;strokeColor=#666666;fontColor=#333333;" vertex="1" parent="pNzOla6_ddMFijnGt9M_-149">
          <mxGeometry x="320" y="230" width="120" height="30" as="geometry" />
        </mxCell>
        <mxCell id="pNzOla6_ddMFijnGt9M_-144" style="edgeStyle=orthogonalEdgeStyle;rounded=0;orthogonalLoop=1;jettySize=auto;html=1;entryX=0.5;entryY=0;entryDx=0;entryDy=0;startArrow=classic;startFill=1;" edge="1" parent="pNzOla6_ddMFijnGt9M_-149" source="pNzOla6_ddMFijnGt9M_-137" target="pNzOla6_ddMFijnGt9M_-143">
          <mxGeometry relative="1" as="geometry" />
        </mxCell>
        <mxCell id="pNzOla6_ddMFijnGt9M_-151" value="" style="whiteSpace=wrap;html=1;fillColor=none;dashed=1;" vertex="1" parent="1">
          <mxGeometry x="470" y="3190" width="160" height="135" as="geometry" />
        </mxCell>
        <mxCell id="pNzOla6_ddMFijnGt9M_-153" style="edgeStyle=orthogonalEdgeStyle;rounded=0;orthogonalLoop=1;jettySize=auto;html=1;exitX=1;exitY=0.5;exitDx=0;exitDy=0;entryX=0;entryY=0.5;entryDx=0;entryDy=0;" edge="1" parent="1" source="pNzOla6_ddMFijnGt9M_-165" target="pNzOla6_ddMFijnGt9M_-175">
          <mxGeometry relative="1" as="geometry">
            <mxPoint x="330" y="3350" as="targetPoint" />
          </mxGeometry>
        </mxCell>
        <mxCell id="pNzOla6_ddMFijnGt9M_-154" value="" style="whiteSpace=wrap;html=1;fillColor=none;dashed=1;" vertex="1" parent="1">
          <mxGeometry x="130" y="3225" width="160" height="310" as="geometry" />
        </mxCell>
        <mxCell id="pNzOla6_ddMFijnGt9M_-155" value="Clinet" style="whiteSpace=wrap;html=1;fillColor=#e1d5e7;strokeColor=#9673a6;" vertex="1" parent="1">
          <mxGeometry x="150" y="3175" width="120" height="30" as="geometry" />
        </mxCell>
        <mxCell id="pNzOla6_ddMFijnGt9M_-156" value="Filter0" style="whiteSpace=wrap;html=1;fillColor=#ffe6cc;strokeColor=#d79b00;" vertex="1" parent="1">
          <mxGeometry x="150" y="3245" width="120" height="30" as="geometry" />
        </mxCell>
        <mxCell id="pNzOla6_ddMFijnGt9M_-157" style="edgeStyle=orthogonalEdgeStyle;rounded=0;orthogonalLoop=1;jettySize=auto;html=1;entryX=0.5;entryY=0;entryDx=0;entryDy=0;startArrow=classic;startFill=1;" edge="1" parent="1" source="pNzOla6_ddMFijnGt9M_-155" target="pNzOla6_ddMFijnGt9M_-156">
          <mxGeometry relative="1" as="geometry" />
        </mxCell>
        <mxCell id="pNzOla6_ddMFijnGt9M_-158" value="" style="whiteSpace=wrap;html=1;fillColor=#ffe6cc;strokeColor=#d79b00;" vertex="1" parent="1">
          <mxGeometry x="150" y="3315" width="120" height="60" as="geometry" />
        </mxCell>
        <mxCell id="pNzOla6_ddMFijnGt9M_-159" style="edgeStyle=orthogonalEdgeStyle;rounded=0;orthogonalLoop=1;jettySize=auto;html=1;entryX=0.5;entryY=0;entryDx=0;entryDy=0;startArrow=classic;startFill=1;" edge="1" parent="1" source="pNzOla6_ddMFijnGt9M_-156" target="pNzOla6_ddMFijnGt9M_-158">
          <mxGeometry relative="1" as="geometry" />
        </mxCell>
        <mxCell id="pNzOla6_ddMFijnGt9M_-160" value="Filter2" style="whiteSpace=wrap;html=1;fillColor=#ffe6cc;strokeColor=#d79b00;" vertex="1" parent="1">
          <mxGeometry x="150" y="3415" width="120" height="30" as="geometry" />
        </mxCell>
        <mxCell id="pNzOla6_ddMFijnGt9M_-161" style="edgeStyle=orthogonalEdgeStyle;rounded=0;orthogonalLoop=1;jettySize=auto;html=1;entryX=0.5;entryY=0;entryDx=0;entryDy=0;startArrow=classic;startFill=1;" edge="1" parent="1" source="pNzOla6_ddMFijnGt9M_-158" target="pNzOla6_ddMFijnGt9M_-160">
          <mxGeometry relative="1" as="geometry" />
        </mxCell>
        <mxCell id="pNzOla6_ddMFijnGt9M_-162" value="Servlet" style="whiteSpace=wrap;html=1;fillColor=#ffe6cc;strokeColor=#d79b00;" vertex="1" parent="1">
          <mxGeometry x="150" y="3485" width="120" height="30" as="geometry" />
        </mxCell>
        <mxCell id="pNzOla6_ddMFijnGt9M_-163" style="edgeStyle=orthogonalEdgeStyle;rounded=0;orthogonalLoop=1;jettySize=auto;html=1;entryX=0.5;entryY=0;entryDx=0;entryDy=0;startArrow=classic;startFill=1;" edge="1" parent="1" source="pNzOla6_ddMFijnGt9M_-160" target="pNzOla6_ddMFijnGt9M_-162">
          <mxGeometry relative="1" as="geometry" />
        </mxCell>
        <mxCell id="pNzOla6_ddMFijnGt9M_-164" value="FilterChain" style="text;html=1;align=center;verticalAlign=middle;resizable=0;points=[];autosize=1;strokeColor=none;fillColor=none;" vertex="1" parent="1">
          <mxGeometry x="50" y="3225" width="80" height="30" as="geometry" />
        </mxCell>
        <mxCell id="pNzOla6_ddMFijnGt9M_-165" value="FilterChainProxy" style="whiteSpace=wrap;html=1;" vertex="1" parent="1">
          <mxGeometry x="157" y="3335" width="106" height="30" as="geometry" />
        </mxCell>
        <mxCell id="pNzOla6_ddMFijnGt9M_-166" value="DelegatingFilterProxy" style="text;html=1;align=center;verticalAlign=middle;resizable=0;points=[];autosize=1;strokeColor=none;fillColor=none;" vertex="1" parent="1">
          <mxGeometry x="140" y="3310" width="140" height="30" as="geometry" />
        </mxCell>
        <mxCell id="pNzOla6_ddMFijnGt9M_-167" value="SecurityFilterChain 0" style="text;html=1;align=center;verticalAlign=middle;resizable=0;points=[];autosize=1;strokeColor=none;fillColor=none;" vertex="1" parent="1">
          <mxGeometry x="465" y="3160" width="130" height="30" as="geometry" />
        </mxCell>
        <mxCell id="pNzOla6_ddMFijnGt9M_-169" value="" style="whiteSpace=wrap;html=1;fillColor=#f5f5f5;strokeColor=#666666;fontColor=#333333;" vertex="1" parent="1">
          <mxGeometry x="490" y="3285" width="120" height="15" as="geometry" />
        </mxCell>
        <mxCell id="pNzOla6_ddMFijnGt9M_-174" value="Security Filters" style="text;html=1;align=center;verticalAlign=middle;resizable=0;points=[];autosize=1;strokeColor=none;fillColor=none;fontSize=20;fontStyle=1" vertex="1" parent="1">
          <mxGeometry x="40" y="3810" width="170" height="40" as="geometry" />
        </mxCell>
        <mxCell id="pNzOla6_ddMFijnGt9M_-189" style="edgeStyle=orthogonalEdgeStyle;rounded=0;orthogonalLoop=1;jettySize=auto;html=1;entryX=0;entryY=0.5;entryDx=0;entryDy=0;" edge="1" parent="1" source="pNzOla6_ddMFijnGt9M_-175" target="pNzOla6_ddMFijnGt9M_-151">
          <mxGeometry relative="1" as="geometry" />
        </mxCell>
        <mxCell id="pNzOla6_ddMFijnGt9M_-190" style="edgeStyle=orthogonalEdgeStyle;rounded=0;orthogonalLoop=1;jettySize=auto;html=1;entryX=0;entryY=0.5;entryDx=0;entryDy=0;" edge="1" parent="1" source="pNzOla6_ddMFijnGt9M_-175" target="pNzOla6_ddMFijnGt9M_-181">
          <mxGeometry relative="1" as="geometry" />
        </mxCell>
        <mxCell id="pNzOla6_ddMFijnGt9M_-175" value="?" style="rhombus;whiteSpace=wrap;html=1;" vertex="1" parent="1">
          <mxGeometry x="340" y="3330" width="40" height="40" as="geometry" />
        </mxCell>
        <mxCell id="pNzOla6_ddMFijnGt9M_-176" value="" style="whiteSpace=wrap;html=1;fillColor=#f5f5f5;strokeColor=#666666;fontColor=#333333;" vertex="1" parent="1">
          <mxGeometry x="490" y="3260" width="120" height="15" as="geometry" />
        </mxCell>
        <mxCell id="pNzOla6_ddMFijnGt9M_-177" value="" style="whiteSpace=wrap;html=1;fillColor=#f5f5f5;strokeColor=#666666;fontColor=#333333;" vertex="1" parent="1">
          <mxGeometry x="490" y="3235" width="120" height="15" as="geometry" />
        </mxCell>
        <mxCell id="pNzOla6_ddMFijnGt9M_-180" value="/api/**" style="text;html=1;align=center;verticalAlign=middle;resizable=0;points=[];autosize=1;strokeColor=none;fillColor=none;" vertex="1" parent="1">
          <mxGeometry x="520" y="3195" width="60" height="30" as="geometry" />
        </mxCell>
        <mxCell id="pNzOla6_ddMFijnGt9M_-181" value="" style="whiteSpace=wrap;html=1;fillColor=none;dashed=1;" vertex="1" parent="1">
          <mxGeometry x="470" y="3450" width="160" height="150" as="geometry" />
        </mxCell>
        <mxCell id="pNzOla6_ddMFijnGt9M_-182" value="SecurityFilterChain n" style="text;html=1;align=center;verticalAlign=middle;resizable=0;points=[];autosize=1;strokeColor=none;fillColor=none;" vertex="1" parent="1">
          <mxGeometry x="465" y="3420" width="130" height="30" as="geometry" />
        </mxCell>
        <mxCell id="pNzOla6_ddMFijnGt9M_-183" value="" style="whiteSpace=wrap;html=1;fillColor=#f5f5f5;strokeColor=#666666;fontColor=#333333;" vertex="1" parent="1">
          <mxGeometry x="490" y="3545" width="120" height="15" as="geometry" />
        </mxCell>
        <mxCell id="pNzOla6_ddMFijnGt9M_-184" value="" style="whiteSpace=wrap;html=1;fillColor=#f5f5f5;strokeColor=#666666;fontColor=#333333;" vertex="1" parent="1">
          <mxGeometry x="490" y="3520" width="120" height="15" as="geometry" />
        </mxCell>
        <mxCell id="pNzOla6_ddMFijnGt9M_-185" value="" style="whiteSpace=wrap;html=1;fillColor=#f5f5f5;strokeColor=#666666;fontColor=#333333;" vertex="1" parent="1">
          <mxGeometry x="490" y="3495" width="120" height="15" as="geometry" />
        </mxCell>
        <mxCell id="pNzOla6_ddMFijnGt9M_-186" value="/**" style="text;html=1;align=center;verticalAlign=middle;resizable=0;points=[];autosize=1;strokeColor=none;fillColor=none;" vertex="1" parent="1">
          <mxGeometry x="530" y="3455" width="40" height="30" as="geometry" />
        </mxCell>
        <mxCell id="pNzOla6_ddMFijnGt9M_-187" value="" style="whiteSpace=wrap;html=1;fillColor=none;dashed=1;" vertex="1" parent="1">
          <mxGeometry x="470" y="3345" width="160" height="25" as="geometry" />
        </mxCell>
        <mxCell id="pNzOla6_ddMFijnGt9M_-188" value="" style="whiteSpace=wrap;html=1;fillColor=none;dashed=1;" vertex="1" parent="1">
          <mxGeometry x="470" y="3385" width="160" height="25" as="geometry" />
        </mxCell>
        <mxCell id="pNzOla6_ddMFijnGt9M_-191" value="ex) /api/message/ 요청&lt;br&gt;&lt;br&gt;먼저 일치하는&amp;nbsp;SecurityFilterChain 0 호출.&amp;nbsp;&amp;nbsp;SecurityFilterChain n 일치하더라도 호출 X&lt;br&gt;&lt;br&gt;ex) /message/ 요청&lt;br&gt;&lt;br&gt;패턴이 일치하는 필터를 찾고 없으면&amp;nbsp;SecurityFilterChain n 호출" style="text;html=1;align=left;verticalAlign=middle;resizable=0;points=[];autosize=1;strokeColor=none;fillColor=none;" vertex="1" parent="1">
          <mxGeometry x="140" y="3610" width="480" height="110" as="geometry" />
        </mxCell>
        <mxCell id="pNzOla6_ddMFijnGt9M_-192" value="" style="whiteSpace=wrap;html=1;fillColor=#f5f5f5;strokeColor=#666666;fontColor=#333333;" vertex="1" parent="1">
          <mxGeometry x="490" y="3570" width="120" height="15" as="geometry" />
        </mxCell>
        <mxCell id="pNzOla6_ddMFijnGt9M_-193" value="필터 3개" style="text;html=1;align=center;verticalAlign=middle;resizable=0;points=[];autosize=1;strokeColor=none;fillColor=none;" vertex="1" parent="1">
          <mxGeometry x="625" y="3238" width="70" height="30" as="geometry" />
        </mxCell>
        <mxCell id="pNzOla6_ddMFijnGt9M_-194" value="필터 4개" style="text;html=1;align=center;verticalAlign=middle;resizable=0;points=[];autosize=1;strokeColor=none;fillColor=none;" vertex="1" parent="1">
          <mxGeometry x="625" y="3518" width="70" height="30" as="geometry" />
        </mxCell>
        <mxCell id="pNzOla6_ddMFijnGt9M_-195" value="특정 요청에 대해서 Spring Security 를 적용하지 않고 싶은 경우&lt;br&gt;SecurityFilterChain 에 필터가 하나도 없을 수 있음" style="text;html=1;align=center;verticalAlign=middle;resizable=0;points=[];autosize=1;strokeColor=none;fillColor=none;" vertex="1" parent="1">
          <mxGeometry x="680" y="3570" width="360" height="40" as="geometry" />
        </mxCell>
        <mxCell id="pNzOla6_ddMFijnGt9M_-196" value="&lt;div&gt;@Configuration&lt;/div&gt;&lt;div&gt;@EnableWebSecurity&lt;/div&gt;&lt;div&gt;public class SecurityConfig {&lt;/div&gt;&lt;div&gt;&lt;span style=&quot;white-space: pre;&quot;&gt;&#x9;&lt;/span&gt;// 보안 필터는 SecurityFilterChain API 를 사용하여 FilterChainProxy 에 삽입&lt;br&gt;&lt;/div&gt;&lt;div&gt;&amp;nbsp; &amp;nbsp; @Bean&lt;/div&gt;&lt;div&gt;&amp;nbsp; &amp;nbsp; public SecurityFilterChain filterChain(HttpSecurity http) throws Exception { // 보안 필터는 대부분 HttpSecurity 인스턴스를 사용하여 선언&lt;/div&gt;&lt;div&gt;&amp;nbsp; &amp;nbsp; &amp;nbsp; &amp;nbsp; http&lt;/div&gt;&lt;div&gt;&amp;nbsp; &amp;nbsp; &amp;nbsp; &amp;nbsp; &amp;nbsp; &amp;nbsp; .csrf(Customizer.withDefaults()) // 1. CSRF 공격으로부터 보호하기 위해 CsrfFilter 호출&lt;/div&gt;&lt;div&gt;&amp;nbsp; &amp;nbsp; &amp;nbsp; &amp;nbsp; &amp;nbsp; &amp;nbsp; .httpBasic(Customizer.withDefaults())&amp;nbsp; // 2. 요청을 인증하기 위해 인증 필터 호출 (BasicAuthenticationFilter)&lt;/div&gt;&lt;div&gt;&amp;nbsp; &amp;nbsp; &amp;nbsp; &amp;nbsp; &amp;nbsp; &amp;nbsp; .formLogin(Customizer.withDefaults())&amp;nbsp; // 2. 요청을 인증하기 위해 인증 필터 호출&lt;span style=&quot;background-color: initial;&quot;&gt;&amp;nbsp;(UsernamePasswordAuthenticationFilter)&lt;/span&gt;&lt;/div&gt;&lt;div&gt;&amp;nbsp; &amp;nbsp; &amp;nbsp; &amp;nbsp; &amp;nbsp; &amp;nbsp; .authorizeHttpRequests(authorize -&amp;gt; authorize // 3. 요청을 승인하기 위해 AuthorizationFilter 호출&lt;/div&gt;&lt;div&gt;&amp;nbsp; &amp;nbsp; &amp;nbsp; &amp;nbsp; &amp;nbsp; &amp;nbsp; &amp;nbsp; &amp;nbsp; .anyRequest().authenticated()&lt;/div&gt;&lt;div&gt;&amp;nbsp; &amp;nbsp; &amp;nbsp; &amp;nbsp; &amp;nbsp; &amp;nbsp; );&lt;/div&gt;&lt;div&gt;&lt;br&gt;&lt;/div&gt;&lt;div&gt;&amp;nbsp; &amp;nbsp; &amp;nbsp; &amp;nbsp; return http.build();&lt;/div&gt;&lt;div&gt;&amp;nbsp; &amp;nbsp; }&lt;/div&gt;&lt;div&gt;&lt;br&gt;&lt;/div&gt;&lt;div&gt;}&lt;/div&gt;" style="text;html=1;align=left;verticalAlign=middle;resizable=0;points=[];autosize=1;strokeColor=none;fillColor=none;" vertex="1" parent="1">
          <mxGeometry x="50" y="3870" width="760" height="270" as="geometry" />
        </mxCell>
        <mxCell id="pNzOla6_ddMFijnGt9M_-197" value="위 예시 말고도 더 많은 필더 인스턴스가 있다." style="text;html=1;align=center;verticalAlign=middle;resizable=0;points=[];autosize=1;strokeColor=none;fillColor=none;" vertex="1" parent="1">
          <mxGeometry x="30" y="4160" width="270" height="30" as="geometry" />
        </mxCell>
        <mxCell id="pNzOla6_ddMFijnGt9M_-199" value="필터 목록은 애플리케이션 시작 시 디버그 수준에서 인쇄 됨 콘솔에서 확인 가능" style="text;html=1;align=center;verticalAlign=middle;resizable=0;points=[];autosize=1;strokeColor=none;fillColor=none;" vertex="1" parent="1">
          <mxGeometry x="30" y="4208" width="440" height="30" as="geometry" />
        </mxCell>
        <mxCell id="pNzOla6_ddMFijnGt9M_-200" value="SecurityFilterChain 에 사용자 정의 Filter 추가" style="text;html=1;align=center;verticalAlign=middle;resizable=0;points=[];autosize=1;strokeColor=none;fillColor=none;fontSize=16;fontStyle=1" vertex="1" parent="1">
          <mxGeometry x="50" y="4325" width="360" height="30" as="geometry" />
        </mxCell>
        <mxCell id="pNzOla6_ddMFijnGt9M_-201" value="HttpSecurity&lt;br&gt;&lt;br&gt;- addFilterBefore(Filter, Class&amp;lt;?&amp;gt;)&amp;nbsp; : 다른 필터 앞에 필터 추가&lt;br&gt;&lt;br&gt;- addFilterAfter(Filter, Class&amp;lt;?&amp;gt;) : 다른 필터 뒤에 필터 추가&lt;br&gt;&lt;br&gt;- addFilterAt(Filter, Class&amp;lt;?&amp;gt;) : 다른 필터를 해당 필터로 교체" style="text;html=1;align=left;verticalAlign=middle;resizable=0;points=[];autosize=1;strokeColor=none;fillColor=none;" vertex="1" parent="1">
          <mxGeometry x="65" y="4370" width="350" height="110" as="geometry" />
        </mxCell>
      </root>
    </mxGraphModel>
  </diagram>
</mxfile>
